# xmcd
#
# Track frame offsets:
#	150
#	22220
#	39968
#	76634
#	91163
#	106172
#	120436
#	143033
#	161300
#	188532
#	213296
#
# Disc length: 2968 seconds
#
# Revision: 0
# Processed by: cddbd v1.5.1PL2 Copyright (c) Steve Scherf et al.
# Submitted via: EasyCDDAExtractor 9.0.0.1
#
DISCID=760b960b
DTITLE=Eric Clapton - Behind The Sun
DYEAR=1985
DGENRE=Blues
TTITLE0=She's Waiting
TTITLE1=See What Love Can Do
TTITLE2=Same Old Blues
TTITLE3=Knock On Wood
TTITLE4=Something's Happening
TTITLE5=Forever Man
TTITLE6=It All Depends
TTITLE7=Tangled In Love
TTITLE8=Never Make You Cry
TTITLE9=Just LIke A Prisoner
TTITLE10=Behind The Sun
EXTD=
EXTT0=
EXTT1=
EXTT2=
EXTT3=
EXTT4=
EXTT5=
EXTT6=
EXTT7=
EXTT8=
EXTT9=
EXTT10=
PLAYORDER=
